<svg version="1.1" xmlns="http://www.w3.org/2000/svg" xmlns:xlink="http://www.w3.org/1999/xlink" width="800px" height="800px" viewBox="0,0,256,256"><g fill="none" fill-rule="nonzero" stroke="#ffffff" stroke-width="2" stroke-linecap="round" stroke-linejoin="round" stroke-miterlimit="10" stroke-dasharray="" stroke-dashoffset="0" font-family="none" font-weight="none" font-size="none" text-anchor="none" style="mix-blend-mode: normal"><g transform="translate(5.33333,0) scale(10.66667,10.66667)"><path d="M9.29183,21v-2.5593l0.03367,-1.8188c0.04045,-0.5658 0.26089,-1.0991 0.62357,-1.5119c0.00531,-0.0061 0.01065,-0.0121 0.01603,-0.0181c0.014,-0.0156 0.00478,-0.0408 -0.01603,-0.0434v0c-2.42353,-0.3025 -4.94857,-1.3258 -4.94857,-5.78101c-0.0158,-1.09728 0.3422,-2.16101 1.00387,-2.99534c0.02315,-0.02918 0.04666,-0.05809 0.07055,-0.0867v0c0.03109,-0.03725 0.04126,-0.08773 0.02702,-0.13411c-0.00087,-0.00281 -0.00173,-0.00563 -0.00259,-0.00845c-0.01615,-0.05299 -0.03131,-0.10623 -0.04547,-0.15968c-0.24323,-0.91847 -0.19093,-1.89958 0.15139,-2.78503c0.00252,-0.00654 0.00507,-0.01307 0.00763,-0.0196c0.01278,-0.03259 0.03961,-0.0575 0.07408,-0.06365v0c0.21491,-0.03832 1.08338,-0.08959 2.746,1.05853c0.05175,0.03573 0.10426,0.07263 0.15755,0.11072v0c0.03848,0.0275 0.08741,0.03593 0.13291,0.02298c0.00143,-0.00041 0.00287,-0.00082 0.0043,-0.00123c0.08925,-0.02537 0.17874,-0.04944 0.26843,-0.07223c1.58043,-0.40144 3.22723,-0.40144 4.80763,0c0.0851,0.0216 0.1699,0.04437 0.2546,0.06829c0.0018,0.00053 0.0037,0.00105 0.0055,0.00157c0.0535,0.01516 0.111,0.00526 0.1563,-0.02703v0c0.0496,-0.03539 0.0985,-0.06974 0.1468,-0.10307c1.6587,-1.1457 2.5224,-1.09706 2.7383,-1.05877v0c0.0351,0.00623 0.0625,0.03159 0.0757,0.06477c0.0017,0.00427 0.0033,0.00853 0.005,0.0128c0.3481,0.88585 0.4034,1.86988 0.16,2.79095c-0.0145,0.0549 -0.0301,0.10959 -0.0467,0.16402v0c-0.015,0.04895 -0.0042,0.10219 0.0285,0.14152c0.0011,0.00123 0.0021,0.00246 0.0031,0.0037c0.0219,0.02632 0.0435,0.05289 0.0647,0.0797c0.6617,0.83433 1.0197,1.89806 1.0039,2.99534c0,4.47951 -2.543,5.47601 -4.9781,5.74751v0c-0.0141,0.0015 -0.0204,0.0184 -0.0109,0.0289c0.0036,0.004 0.0073,0.008 0.0109,0.012c0.2457,0.2737 0.4363,0.5985 0.5597,0.9544c0.129,0.3721 0.1815,0.7694 0.154,1.1651v3.8246"></path><path d="M4,17c0.36915,0.0523 0.72159,0.1883 1.03065,0.3975c0.30905,0.2093 0.56661,0.4863 0.75315,0.8103c0.15851,0.2884 0.37221,0.5426 0.62884,0.7479c0.25663,0.2053 0.55115,0.3578 0.86665,0.4486c0.31549,0.0909 0.64575,0.1183 0.97183,0.0807c0.32608,-0.0375 0.64156,-0.1393 0.92834,-0.2995"></path></g></g></svg>