<svg version="1.1" xmlns="http://www.w3.org/2000/svg" xmlns:xlink="http://www.w3.org/1999/xlink" width="552.85px" height="198.67px" viewBox="0,0,256,91.9875"><g fill="#ffffff" fill-rule="nonzero" stroke="none" stroke-width="1" stroke-linecap="butt" stroke-linejoin="miter" stroke-miterlimit="10" stroke-dasharray="" stroke-dashoffset="0" font-family="none" font-weight="none" font-size="none" text-anchor="none" style="mix-blend-mode: normal"><g transform="translate(0,-0.01077) scale(0.46306,0.46306)"><g><g><path d="M275.36,61.37l26.29,-1.65c0.57333,4.27333 1.73333,7.52667 3.48,9.76c2.85333,3.62 6.92,5.43 12.2,5.43c3.94,0 6.98,-0.92333 9.12,-2.77c1.9849,-1.55291 3.16115,-3.9201 3.2,-6.44c-0.03291,-2.4145 -1.13095,-4.69109 -3,-6.22c-2,-1.82667 -6.71667,-3.55667 -14.15,-5.19c-12.12,-2.72 -20.76333,-6.34 -25.93,-10.86c-5.09303,-4.26599 -7.96737,-10.61825 -7.81,-17.26c0.01915,-4.63344 1.41109,-9.15726 4,-13c2.95677,-4.33108 7.1334,-7.6863 12,-9.64c5.33333,-2.34 12.66667,-3.51 22,-3.51c11.42667,0 20.14,2.12667 26.14,6.38c6,4.25333 9.57,11.01333 10.71,20.28l-26.05,1.52c-0.66667,-4 -2.12,-6.92667 -4.36,-8.78c-2.24,-1.85333 -5.30667,-2.77667 -9.2,-2.77c-3.21,0 -5.63,0.69 -7.25,2.05c-1.5512,1.19281 -2.45423,3.04326 -2.44,5c0.04917,1.51724 0.78497,2.92997 2,3.84c1.3,1.18 4.39,2.28 9.27,3.3c12.08,2.6 20.74667,5.23333 26,7.9c5.25333,2.66667 9.05333,5.97 11.4,9.91c2.39489,3.99683 3.63095,8.58098 3.57,13.24c0.02878,5.64135 -1.62499,11.16319 -4.75,15.86c-3.25254,4.89713 -7.87959,8.72401 -13.3,11c-5.7,2.5 -12.88,3.75 -21.54,3.75c-15.20667,0 -25.74,-2.92667 -31.6,-8.78c-5.86,-5.85333 -9.19333,-13.30333 -10,-22.35zM6.27,91v-89.47h46.06c8.54,0 15.06667,0.73 19.58,2.19c4.44573,1.41997 8.28934,4.28508 10.92,8.14c2.86323,4.27873 4.3209,9.34385 4.17,14.49c0.11595,4.49083 -0.99009,8.92882 -3.2,12.84c-2.12068,3.62573 -5.12376,6.65634 -8.73,8.81c-3.03182,1.67231 -6.30371,2.86638 -9.7,3.54c2.54123,0.74836 4.9624,1.85624 7.19,3.29c1.6555,1.37612 3.14549,2.93994 4.44,4.66c1.45636,1.7095 2.74558,3.55459 3.85,5.51l13.38,26h-31.23l-14.76,-27.37c-1.87333,-3.54 -3.54,-5.84 -5,-6.9c-1.98952,-1.37875 -4.35965,-2.10238 -6.78,-2.07h-2.46v36.34zM34,37.76h11.68c2.47186,-0.18456 4.9219,-0.5929 7.32,-1.22c1.79205,-0.34383 3.39035,-1.34634 4.48,-2.81c1.15231,-1.47849 1.76608,-3.30568 1.74,-5.18c0.15235,-2.52122 -0.86145,-4.97277 -2.75,-6.65c-1.82667,-1.54667 -5.26333,-2.32 -10.31,-2.32h-12.16zM0,167.56l26.29,-1.64c0.57333,4.27333 1.73333,7.52667 3.48,9.76c2.82,3.62 6.89667,5.43 12.23,5.43c3.94,0 6.98,-0.92667 9.12,-2.78c1.9849,-1.55291 3.16115,-3.9201 3.2,-6.44c-0.03565,-2.41386 -1.13316,-4.68936 -3,-6.22c-2,-1.82667 -6.71667,-3.55333 -14.15,-5.18c-12.12,-2.73333 -20.76333,-6.35333 -25.93,-10.86c-5.09222,-4.27092 -7.96603,-10.62567 -7.81,-17.27c0.02213,-4.63298 1.41382,-9.15596 4,-13c2.95677,-4.33108 7.1334,-7.6863 12,-9.64c5.33333,-2.34 12.66667,-3.51 22,-3.51c11.42667,0 20.14,2.12667 26.14,6.38c6,4.25333 9.57,11.01333 10.71,20.28l-26,1.53c-0.66667,-4 -2.12,-6.93 -4.36,-8.79c-2.24,-1.86 -5.30333,-2.77333 -9.19,-2.74c-3.20667,0 -5.62333,0.66667 -7.25,2c-1.5512,1.19281 -2.45423,3.04326 -2.44,5c0.04617,1.52079 0.78228,2.93781 2,3.85c1.3,1.18 4.39,2.27667 9.27,3.29c12.08,2.6 20.74667,5.23333 26,7.9c5.25333,2.66667 9.05333,5.97 11.4,9.91c2.39342,3.99745 3.62937,8.58118 3.57,13.24c0.02999,5.64153 -1.62388,11.16372 -4.75,15.86c-3.25254,4.89713 -7.87959,8.72401 -13.3,11c-5.7,2.5 -12.88,3.75 -21.54,3.75c-15.20667,0 -25.74,-2.92667 -31.6,-8.78c-5.86,-5.85333 -9.22333,-13.29667 -10.09,-22.33zM163,160.55l24.22,7.32c-1.33953,6.14433 -3.95989,11.93706 -7.69,17c-3.39901,4.4736 -7.8698,8.01928 -13,10.31c-5.18667,2.31333 -11.78667,3.47 -19.8,3.47c-9.72,0 -17.66,-1.41 -23.82,-4.23c-6.16,-2.82 -11.49333,-7.79 -16,-14.91c-4.48,-7.11333 -6.71667,-16.21667 -6.71,-27.31c0,-14.78667 3.93333,-26.15667 11.8,-34.11c7.86667,-7.95333 19,-11.92667 33.4,-11.92c11.27333,0 20.13,2.28 26.57,6.84c6.44,4.56 11.22667,11.56 14.36,21l-24.4,5.43c-0.57294,-2.12825 -1.47734,-4.15303 -2.68,-6c-1.47783,-2.05186 -3.42093,-3.72423 -5.67,-4.88c-2.33092,-1.16139 -4.90605,-1.74774 -7.51,-1.71c-6.26,0 -11.05667,2.52 -14.39,7.56c-2.53333,3.74 -3.79667,9.61 -3.79,17.61c0,9.90667 1.50667,16.7 4.52,20.38c3.01333,3.68 7.24333,5.51667 12.69,5.51c5.28,0 9.28,-1.48333 12,-4.45c2.72,-2.96667 4.68667,-7.27 5.9,-12.91zM208.51,107.72h27.63v31.28h30.2v-31.28h27.75v89.43h-27.75v-36.15h-30.2v36.18h-27.63zM311.29,152.49c0,-14.58667 4.06667,-25.95333 12.2,-34.1c8.13333,-8.14667 19.46667,-12.21333 34,-12.2c14.88,0 26.34667,4 34.4,12c8.05333,8 12.09,19.19 12.11,33.57c0,10.46 -1.76,19.03333 -5.28,25.72c-3.42541,6.59866 -8.73305,12.03159 -15.25,15.61c-6.66667,3.72 -14.95333,5.58 -24.86,5.58c-10.08,0 -18.41333,-1.60667 -25,-4.82c-6.76701,-3.35355 -12.36694,-8.66774 -16.07,-15.25c-4.17333,-6.94667 -6.25667,-15.65 -6.25,-26.11zM338.92,152.62c0,9.03333 1.66667,15.52 5,19.46c3.33333,3.94 7.9,5.91 13.7,5.91c5.94,0 10.53667,-1.93 13.79,-5.79c3.25333,-3.86 4.88,-10.79333 4.88,-20.8c0,-8.42 -1.7,-14.57333 -5.1,-18.46c-3.4,-3.88667 -8.00667,-5.82667 -13.82,-5.82c-5.12068,-0.18415 -10.04486,1.98145 -13.37,5.88c-3.38,4 -5.07333,10.54 -5.08,19.62z"></path><path d="M392.28,152.49c0,-14.58667 4.06667,-25.95333 12.2,-34.1c8.13333,-8.14667 19.46667,-12.21333 34,-12.2c14.89333,0 26.36333,4 34.41,12c8.04667,8 12.07,19.19333 12.07,33.58c0,10.46 -1.75667,19.03333 -5.27,25.72c-3.42836,6.59652 -8.73525,12.02869 -15.25,15.61c-6.66667,3.72 -14.95333,5.58 -24.86,5.58c-10.08667,0 -18.42,-1.60667 -25,-4.82c-6.76785,-3.35602 -12.37035,-8.66934 -16.08,-15.25c-4.14667,-6.95333 -6.22,-15.66 -6.22,-26.12zM419.92,152.62c0,9.03333 1.66667,15.52 5,19.46c3.33333,3.94 7.90667,5.91333 13.72,5.92c5.94,0 10.53667,-1.93 13.79,-5.79c3.25333,-3.86 4.88,-10.79333 4.88,-20.8c0,-8.42 -1.69667,-14.57333 -5.09,-18.46c-3.39333,-3.88667 -8,-5.82667 -13.82,-5.82c-5.12967,-0.1974 -10.0672,1.96553 -13.4,5.87c-3.39333,4 -5.08667,10.54 -5.08,19.62z"></path><path d="M482.08,107.72h27.64v67.41h43.13v22h-70.77z"></path></g></g></g></g></svg>